<?xml version="1.0" encoding="UTF-8" standalone="no"?>
<svg
   xmlns:dc="http://purl.org/dc/elements/1.1/"
   xmlns:cc="http://creativecommons.org/ns#"
   xmlns:rdf="http://www.w3.org/1999/02/22-rdf-syntax-ns#"
   xmlns:svg="http://www.w3.org/2000/svg"
   xmlns="http://www.w3.org/2000/svg"
   xmlns:sodipodi="http://sodipodi.sourceforge.net/DTD/sodipodi-0.dtd"
   xmlns:inkscape="http://www.inkscape.org/namespaces/inkscape"
   width="5in"
   height="4.5in"
   viewBox="0 0 360 324.00001"
   version="1.2"
   id="svg39"
   sodipodi:docname="forallx-coverart-screen.svg"
   inkscape:version="0.92.3 (5aff6ba, 2018-11-25)">
  <title
     id="title899">forall x cover art</title>
  <metadata
     id="metadata43">
    <rdf:RDF>
      <cc:Work
         rdf:about="">
        <dc:format>image/svg+xml</dc:format>
        <dc:type
           rdf:resource="http://purl.org/dc/dcmitype/StillImage" />
        <dc:title>forall x cover art</dc:title>
        <dc:creator>
          <cc:Agent>
            <dc:title>Mark Lyall</dc:title>
          </cc:Agent>
        </dc:creator>
      </cc:Work>
    </rdf:RDF>
  </metadata>
  <sodipodi:namedview
     pagecolor="#ffffff"
     bordercolor="#666666"
     borderopacity="1"
     objecttolerance="10"
     gridtolerance="10"
     guidetolerance="10"
     inkscape:pageopacity="0"
     inkscape:pageshadow="2"
     inkscape:window-width="1853"
     inkscape:window-height="1009"
     id="namedview41"
     showgrid="false"
     units="in"
     fit-margin-top="0"
     fit-margin-left="0"
     fit-margin-right="0"
     fit-margin-bottom="0"
     inkscape:zoom="0.2838722"
     inkscape:cx="317.49986"
     inkscape:cy="403.19622"
     inkscape:window-x="67"
     inkscape:window-y="34"
     inkscape:window-maximized="1"
     inkscape:current-layer="svg39" />
  <defs
     id="defs14">
    <clipPath
       id="clip1">
      <path
         d="M 0,226 H 481.67969 V 623.51953 H 0 Z m 0,0"
         id="path2"
         inkscape:connector-curvature="0" />
    </clipPath>
    <clipPath
       id="clip2">
      <path
         d="M 294,226 H 481.67969 V 411 H 294 Z m 0,0"
         id="path5"
         inkscape:connector-curvature="0" />
    </clipPath>
    <clipPath
       id="clip3">
      <path
         d="M 318,226 H 481.67969 V 411 H 318 Z m 0,0"
         id="path8"
         inkscape:connector-curvature="0" />
    </clipPath>
    <clipPath
       id="clip4">
      <path
         d="M 310,228 H 481.67969 V 409 H 310 Z m 0,0"
         id="path11"
         inkscape:connector-curvature="0" />
    </clipPath>
  </defs>
  <g
     style="clip-rule:nonzero"
     id="g18"
     clip-path="url(#clip1)"
     transform="matrix(0.74738462,0,0,0.81678796,0,-185.28324)">
    <path
       inkscape:connector-curvature="0"
       id="path16"
       d="M 0,623.51953 H 481.67969 V 226.84375 H 0 Z m 0,0"
       style="fill:#de1e94;fill-opacity:1;fill-rule:nonzero;stroke:none" />
  </g>
  <path
     inkscape:connector-curvature="0"
     id="path20"
     d="M 172.05319,1.9874994e-7 146.21879,72.87292 H 36.332818 L 10.501338,1.9874994e-7 H 0 V 106.88184 l 64.86481,168.41262 h 51.28051 L 221.79222,1.9874994e-7 Z M 49.055874,109.50061 H 133.11037 L 91.469952,227.87056 h -1.156114 z m 0,0"
     style="fill:#f37323;fill-opacity:1;fill-rule:nonzero;stroke:none;stroke-width:0.74738461" />
  <path
     inkscape:connector-curvature="0"
     id="path22"
     d="M 139.44854,275.29446 H 88.168029 116.14532 L 221.79222,1.9874989e-7 h 23.3003 z M 91.469952,227.87056 H 90.313838 L 49.058793,109.50061 H 133.11037 72.359093 l 30.234047,86.74916 z M 59.636038,72.87292 H 36.332818 L 10.501338,1.9874997e-7 h 23.300299 z m 0,0"
     style="fill:#de232e;fill-opacity:1;fill-rule:nonzero;stroke:none;stroke-width:0.74738461" />
  <path
     inkscape:connector-curvature="0"
     id="path24"
     d="M 195.35641,1.9874994e-7 169.52201,72.87292 H 36.332818 L 10.501338,1.9874994e-7 H 0 V 46.37872 L 88.168029,275.29446 H 116.14532 L 221.79222,1.9874994e-7 Z M 49.058793,109.50061 H 156.41359 l -41.64334,118.36995 h -1.15611 l -11.021,-31.62371 -11.123188,31.62371 h -1.156114 z m 0,0"
     style="fill:#f0421e;fill-opacity:1;fill-rule:nonzero;stroke:none;stroke-width:0.74738461" />
  <g
     style="clip-rule:nonzero"
     id="g28"
     clip-path="url(#clip2)"
     transform="matrix(0.74738462,0,0,0.74738462,0,-169.53953)">
    <path
       inkscape:connector-curvature="0"
       id="path26"
       d="m 383.51172,324.65234 c -13.91406,16.51953 -24.78125,29.99219 -37.38281,43.46875 -7.82813,8.26172 -13.91407,13.47657 -17.39063,13.47657 -3.47656,0 -6.08594,-4.34766 -7.82812,-12.17188 -0.42969,-2.60937 -2.60157,-5.65234 -4.34375,-5.65234 -2.17188,0 -4.78125,0.4375 -9.5625,4.78125 -7.82813,6.52343 -12.60547,17.82422 -12.60547,26.08203 0,7.82812 5.21484,15.65234 15.64453,15.65234 8.26562,0 22.17187,-4.78125 46.95312,-34.34375 11.73438,-13.47656 24.77344,-30.42969 31.73438,-37.38281 l 16.51562,41.29687 c 7.39063,18.25782 13.91407,30.42969 25.64844,30.42969 16.51563,0 31.73438,-25.21484 37.82031,-53.46875 0.42969,-4.34765 -6.08593,-6.08594 -9.13281,-2.60937 -6.95312,12.60547 -14.34375,25.64843 -20.42969,25.64843 -5.21875,0 -9.5625,-9.5625 -15.64843,-24.77734 l -16.08594,-41.29687 c 39.125,-47.38282 50.85937,-59.55469 58.6875,-59.55469 4.34375,0 7.39062,4.78125 9.125,10.86719 1.30469,4.78125 3.04687,7.39062 6.08594,7.39062 6.52343,0 17.39062,-10 17.39062,-25.21484 0,-9.9961 -5.64844,-20.42969 -17.39062,-20.42969 -13.90625,0 -27.82032,12.60547 -49.11719,37.82031 -21.73438,25.64453 -25.64844,31.29688 -29.5625,35.64453 l -18.6875,-50.85937 c -6.08594,-16.51953 -11.74219,-22.60547 -19.13281,-22.60547 -10.86719,0 -31.29688,22.60547 -39.11719,46.51172 -0.4375,5.65234 3.47656,8.26172 7.82031,6.08594 5.64844,-8.69141 12.17188,-22.16797 19.5625,-22.16797 4.34375,0 6.95313,7.39062 12.17188,20.42968 z m 0,0"
       style="fill:#f37323;fill-opacity:1;fill-rule:nonzero;stroke:none" />
  </g>
  <g
     style="clip-rule:nonzero"
     id="g32"
     clip-path="url(#clip3)"
     transform="matrix(0.74738462,0,0,0.74738462,0,-169.53953)">
    <path
       inkscape:connector-curvature="0"
       id="path30"
       d="m 447.30469,410.28906 c -2.9336,0 -5.54297,-0.76172 -7.91797,-2.1875 9.73047,-5 18.46094,-18.08203 24.35547,-34.07422 4,-4.97265 8.20312,-12.46875 12.25781,-19.8164 1.11328,-1.27735 2.69922,-1.85157 4.23828,-1.85157 2.65234,0 5.16406,1.70704 4.88672,4.46094 -6.08594,28.25391 -21.29688,53.46875 -37.82031,53.46875 m -120.84375,0 c -2.96094,0 -5.50782,-0.63281 -7.625,-1.71484 8.5,-3.17578 20.60156,-11.67969 38.16015,-32.62891 7.23438,-8.30469 14.96485,-17.93359 21.46094,-25.72656 1.62109,-1.89844 3.25,-3.82422 4.88672,-5.77734 2.04297,-2.34766 3.85547,-4.35157 5.38672,-5.87891 l 5.14062,12.85547 c -6.27734,7.5664 -13.60156,16.64453 -20.46484,24.52734 -24.78125,29.5625 -38.6875,34.34375 -46.94531,34.34375 m 2.27734,-28.6914 c -3.29297,0 -5.81641,-3.90625 -7.54687,-10.98047 0.70703,-0.72657 1.45312,-1.41797 2.22265,-2.0586 4.78125,-4.34765 7.39063,-4.78515 9.5625,-4.78515 1.74219,0 3.91406,3.04297 4.35156,5.65234 0.49219,2.21094 1.05079,4.14063 1.67969,5.77344 -4.42187,4.04687 -7.93359,6.39844 -10.26953,6.39844 m 110.41406,-1.73829 c -5.21875,0 -9.5625,-9.5664 -15.64843,-24.77734 l -16.08594,-41.29687 c 4.125,-5 7.94922,-9.60547 11.49609,-13.84766 l 0.13281,0.37109 c 2.67969,-2.97656 5.35938,-6.55859 13.7461,-16.74218 19.58984,-22.67188 27.52344,-29.33594 33.3125,-29.33594 2.71484,0 4.92187,1.86328 6.62109,4.74609 -8.6875,7.03125 -22.61328,22.97266 -48.89062,54.8086 l 16.07812,41.29687 c 3.03125,7.57422 5.62891,13.75 8.125,18.03906 -3.125,4.07813 -6.13672,6.73828 -8.88672,6.73828 m -36.51562,-79.55078 -18.6875,-50.85937 c -3.69531,-10.02735 -7.23438,-16.21094 -11.08594,-19.51953 3.08984,-1.98047 5.96094,-3.08594 8.37109,-3.08594 7.39063,0 13.03907,6.08594 19.125,22.60547 l 13.61719,37.04297 c -6.53125,7.98437 -8.93359,11.14453 -11.33984,13.8164 m -55.67578,-20.10156 c -2.98828,0 -5.1836,-2.54297 -4.85157,-6.85156 1.59375,-4.875 3.71094,-9.69922 6.17188,-14.28516 1.55859,-1.13281 3.15234,-1.79687 4.80078,-1.79687 2.49609,0 4.42188,2.4414 6.60156,6.99609 -3.5,4.58203 -6.75,10.55078 -9.7539,15.17188 -1.03516,0.51562 -2.03907,0.76562 -2.96875,0.76562 m 150.77343,-7.71875 c -2.80078,0 -4.5,-2.21484 -5.76953,-6.30078 3.76563,-4.42188 6.74219,-10.95313 6.74219,-18.91406 0,-7.5625 -3.23047,-15.375 -9.88672,-18.73047 3.01172,-1.13281 5.96094,-1.69922 8.91406,-1.69922 11.73438,0 17.38282,10.43359 17.38282,20.42969 0,15.21484 -10.86719,25.21484 -17.38282,25.21484"
       style="fill:#de232e;fill-opacity:1;fill-rule:nonzero;stroke:none" />
  </g>
  <g
     style="clip-rule:nonzero"
     id="g36"
     clip-path="url(#clip4)"
     transform="matrix(0.74738462,0,0,0.74738462,0,-169.53953)">
    <path
       inkscape:connector-curvature="0"
       id="path34"
       d="m 318.83203,408.57422 c -5.34766,-2.73047 -8.01953,-8.33203 -8.01953,-13.9336 0,-7.44531 3.87891,-17.36328 10.37891,-24.02343 1.73046,7.07422 4.2539,10.98047 7.54687,10.98047 2.33594,0 5.84766,-2.35157 10.26953,-6.39844 1.59766,4.16015 3.64453,6.39844 6.14063,6.39844 3.47656,0 9.5625,-5.21485 17.39062,-13.47657 5.50781,-5.88281 10.67578,-11.76562 15.91797,-17.90234 -6.49609,7.79297 -14.22656,17.42187 -21.46094,25.72656 -17.55859,20.94922 -29.66015,29.45313 -38.16406,32.62891 m 120.55469,-0.47266 C 432.25,403.82031 427.19922,393.55078 421.65625,379.85937 L 405.14062,338.5625 c -2.89062,2.88281 -6.82031,7.48828 -11.26953,12.85547 l -5.14062,-12.85547 c -1.53125,1.52734 -3.34766,3.53125 -5.38672,5.87891 5.21875,-6.19922 10.62109,-12.71485 16.57812,-19.78907 l -18.25781,-46.94922 c -5.21094,-13.04296 -7.82031,-20.42968 -12.17187,-20.42968 -3.46094,0 -6.73438,2.95703 -9.8086,6.99609 -2.17968,-4.55469 -4.10547,-6.99609 -6.60156,-6.99609 -1.64453,0 -3.24219,0.66406 -4.80078,1.79687 6.92969,-12.92969 16.52734,-23.99219 24.58203,-29.14062 3.85156,3.30859 7.39063,9.49218 11.08594,19.51953 l 18.6875,50.85937 c 2.40625,-2.67187 4.80859,-5.83203 11.33984,-13.8164 l 4.9375,13.44531 c -3.54687,4.24219 -7.37109,8.84766 -11.49609,13.84766 l 16.08594,41.29687 c 6.08593,15.21484 10.42968,24.77734 15.64843,24.77734 2.75,0 5.76172,-2.66015 8.88672,-6.73828 2.50391,4.32422 4.90625,6.73828 7.52344,6.73828 2.53906,0 5.30469,-2.26953 8.17969,-5.83203 -5.89453,15.99219 -14.625,29.07422 -24.35547,34.07422 m -6.59375,-124.53515 c 3.87109,-4.70313 8.94922,-10.80469 15.8164,-18.90625 16.78516,-19.86719 28.98438,-31.90625 40.21094,-36.11719 6.65625,3.35547 9.88672,11.16797 9.88672,18.73047 0,7.96093 -2.97656,14.49218 -6.74219,18.91406 -0.11328,-0.35156 -0.21875,-0.71484 -0.3164,-1.08984 -1.74219,-6.08594 -4.78125,-10.86719 -9.13282,-10.86719 -2.5664,0 -5.55078,1.30859 -9.78906,4.74609 -1.69922,-2.88281 -3.90625,-4.74609 -6.62109,-4.74609 -5.78906,0 -13.72266,6.66406 -33.3125,29.33594"
       style="fill:#f0421e;fill-opacity:1;fill-rule:nonzero;stroke:none" />
  </g>
</svg>
